<svg width="78" height="78" viewBox="0 0 78 78" fill="none" xmlns="http://www.w3.org/2000/svg">
<path d="M76.4932 18.7774C75.8759 18.1851 75.1282 17.7458 74.3103 17.495C73.4923 17.2442 72.6269 17.1889 71.7837 17.3334C70.6199 17.4076 70.215 17.3823 69.7242 16.8947C69.235 16.4038 69.2164 15.9889 69.2855 14.8351C69.4485 13.9921 69.4022 13.122 69.1507 12.3011C68.8992 11.4802 68.4501 10.7336 67.8429 10.1267C67.2356 9.51974 66.4888 9.07107 65.6678 8.81999C64.8468 8.56892 63.9767 8.52311 63.1339 8.68658C61.9919 8.75405 61.5719 8.74224 61.0845 8.25476C60.6004 7.77062 60.5836 7.35904 60.6561 6.21031C60.8021 5.36824 60.7483 4.50365 60.499 3.6862C60.2496 2.86874 59.8118 2.12128 59.2207 1.50404C59.0319 1.32017 58.8045 1.18058 58.5551 1.0954C58.3057 1.01022 58.0404 0.981564 57.7785 1.01152C57.5164 1.04551 57.2656 1.13924 57.0454 1.28546C56.8252 1.43169 56.6414 1.62651 56.5084 1.85493L48.0797 16.3035C43.894 16.1788 39.73 16.9517 35.8678 18.5701C32.0056 20.1886 28.5345 22.6152 25.688 25.6867C22.6165 28.5331 20.1899 32.0042 18.5716 35.8666C16.9533 39.7291 16.1806 43.8932 16.3057 48.0791L1.85757 56.5084C1.62913 56.6413 1.43428 56.825 1.28806 57.0451C1.14184 57.2653 1.04816 57.5161 1.01426 57.7782C0.980349 58.0404 1.00712 58.3068 1.0925 58.5569C1.17789 58.807 1.3196 59.0342 1.5067 59.2208C2.12412 59.813 2.87181 60.2522 3.68971 60.5029C4.50761 60.7537 5.37293 60.8092 6.21615 60.6649C7.37662 60.5907 7.78652 60.616 8.27568 61.1036C8.76483 61.5945 8.78349 62.0094 8.71422 63.1632C8.57023 64.0065 8.62584 64.8718 8.8766 65.6896C9.12736 66.5075 9.5663 67.2552 10.1582 67.8728C10.7766 68.4628 11.5243 68.9001 12.3416 69.1499C13.159 69.3997 14.0234 69.4551 14.8659 69.3117C16.0062 69.2341 16.4245 69.256 16.9153 69.7435C17.3994 70.2277 17.4162 70.6392 17.3437 71.788C17.1977 72.63 17.2515 73.4946 17.5008 74.3121C17.7502 75.1295 18.188 75.877 18.7791 76.4942C19.103 76.818 19.5423 76.9999 20.0003 77C20.0742 76.9998 20.148 76.9953 20.2214 76.9865C20.4835 76.9525 20.7344 76.8588 20.9546 76.7125C21.1748 76.5663 21.3585 76.3715 21.4915 76.1431L29.9432 61.6554C30.5286 61.7085 31.1008 61.8 31.7032 61.8C39.5424 61.4262 46.9307 58.0246 52.312 52.3116C55.3835 49.4652 57.8101 45.994 59.4284 42.1316C61.0467 38.2692 61.8194 34.1051 61.6943 29.9191L76.1424 21.4899C76.3709 21.357 76.5657 21.1733 76.7119 20.9532C76.8582 20.733 76.9518 20.4822 76.9857 20.2201C77.0197 19.9579 76.9929 19.6915 76.9075 19.4414C76.8221 19.1913 76.6804 18.9641 76.4933 18.7774H76.4932ZM20.81 70.4569C20.7368 69.2605 20.2187 68.1347 19.3576 67.3009C18.7398 66.7106 17.9924 66.2732 17.1752 66.0237C16.358 65.7741 15.4938 65.7193 14.6516 65.8637C13.513 65.938 13.0897 65.9194 12.6005 65.4302C12.1114 64.9394 12.0927 64.5261 12.1618 63.3723C12.3057 62.5288 12.2501 61.6633 11.9993 60.8451C11.7486 60.027 11.3097 59.279 10.7178 58.661C9.87549 57.7912 8.73698 57.2697 7.52816 57.2002L17.0135 51.6672C17.6539 53.8807 18.8466 55.8949 20.4794 57.5206C22.1123 59.1463 24.1316 60.3302 26.3478 60.9608L20.81 70.4569ZM49.8694 49.8692C41.0021 58.7352 28.9131 61.0697 22.9218 55.0781C16.9287 49.0848 19.2649 36.9953 28.1305 28.1294C32.8516 23.0617 39.3425 20.0064 46.2564 19.5974C47.0557 19.5992 47.8536 19.6634 48.6429 19.7895C48.7301 19.8113 48.819 19.8261 48.9086 19.8338C51.2354 20.198 53.3914 21.2766 55.0781 22.9204C61.0711 28.9136 58.735 41.0031 49.8694 49.869V49.8692ZM60.9864 26.331C60.3412 24.1197 59.1492 22.1066 57.5204 20.4777C55.8917 18.8488 53.8787 17.6566 51.6675 17.0113L57.1899 7.54134C57.2631 8.73779 57.7811 9.86359 58.6422 10.6974C59.26 11.2877 60.0074 11.7252 60.8246 11.9748C61.6418 12.2243 62.5061 12.279 63.3483 12.1345C64.4969 12.0671 64.9136 12.0823 65.3994 12.5681C65.8885 13.0589 65.9072 13.4722 65.8381 14.626C65.6942 15.4695 65.7498 16.335 66.0006 17.1531C66.2513 17.9713 66.6902 18.7193 67.282 19.3373C68.1244 20.2071 69.2629 20.7285 70.4717 20.7981L60.9864 26.331Z" fill="#DAA100" stroke="#DAA100" stroke-width="2"/>
</svg>
