<svg width="76" height="76" viewBox="0 0 76 76" fill="none" xmlns="http://www.w3.org/2000/svg">
<path d="M6.00434e-05 59.0096C-0.00032843 61.8034 0.695628 64.5543 2.02628 67.0184C3.35692 69.4825 5.28118 71.5839 7.62859 73.1362C9.97599 74.6886 12.6741 75.6441 15.4838 75.9181C18.2936 76.1921 21.1282 75.7761 23.7367 74.707C26.3451 73.6378 28.6469 71.9486 30.4379 69.7889C32.229 67.6292 33.4542 65.0657 34.0049 62.3255C34.5556 59.5852 34.4148 56.7529 33.5951 54.0794C32.7753 51.4059 31.3019 48.9737 29.3053 46.9983L18.9287 36.7302C18.6974 36.5012 18.4228 36.3196 18.1206 36.1956C17.8184 36.0717 17.4945 36.0079 17.1673 36.0079C16.8402 36.0079 16.5163 36.0717 16.2141 36.1956C15.9118 36.3196 15.6373 36.5012 15.406 36.7302L5.02942 46.9983C3.43011 48.5718 2.1621 50.4437 1.2988 52.5054C0.435509 54.5671 -0.0059245 56.7779 6.00434e-05 59.0096ZM17.1673 41.9589L25.7826 50.4842C27.4869 52.1705 28.6476 54.3189 29.118 56.658C29.5883 58.997 29.3472 61.4215 28.425 63.6249C27.5028 65.8283 25.941 67.7116 23.9372 69.0366C21.9333 70.3617 19.5774 71.0689 17.1673 71.0689C14.7573 71.0689 12.4014 70.3617 10.3975 69.0366C8.39365 67.7116 6.83187 65.8283 5.90969 63.6249C4.98751 61.4215 4.74633 58.997 5.21668 56.658C5.68702 54.3189 6.84775 52.1705 8.55207 50.4842L17.1673 41.9589Z" fill="#DAA100"/>
<path d="M17.1673 67.7789C18.9202 67.7793 20.6339 67.2652 22.0915 66.3016C23.5492 65.3381 24.6853 63.9684 25.3561 62.3658C26.027 60.7632 26.2024 58.9998 25.8603 57.2985C25.5182 55.5972 24.6739 54.0345 23.4341 52.8082C22.9667 52.3474 22.3336 52.089 21.6738 52.0897C21.014 52.0903 20.3815 52.3499 19.9149 52.8116C19.4484 53.2733 19.186 53.8992 19.1854 54.5521C19.1847 55.205 19.4459 55.8315 19.9115 56.2941C20.2719 56.6505 20.5578 57.0737 20.7529 57.5395C20.948 58.0053 21.0484 58.5046 21.0484 59.0088C21.0484 59.513 20.948 60.0123 20.7529 60.4781C20.5578 60.9439 20.2719 61.3671 19.9115 61.7235C19.1721 62.4215 18.1895 62.811 17.1677 62.8113C16.1458 62.8116 15.163 62.4227 14.4232 61.7252C14.192 61.4955 13.9174 61.3133 13.615 61.1888C13.3126 61.0643 12.9883 61.0001 12.6608 60.9998C12.3333 60.9995 12.0089 61.0631 11.7063 61.187C11.4036 61.3108 11.1286 61.4926 10.897 61.7217C10.6655 61.9509 10.4818 62.223 10.3566 62.5225C10.2314 62.822 10.1672 63.143 10.1675 63.4671C10.1678 63.7912 10.2327 64.112 10.3585 64.4113C10.4843 64.7105 10.6685 64.9823 10.9005 65.211C11.7216 66.0279 12.6982 66.6754 13.7739 67.1162C14.8497 67.557 16.003 67.7822 17.1673 67.7789Z" fill="#DAA100"/>
<path d="M58.8327 75.9864C62.2275 75.9883 65.5465 74.9936 68.3698 73.1282C71.1931 71.2628 73.3937 68.6106 74.6932 65.5071C75.9927 62.4037 76.3326 58.9885 75.67 55.6938C75.0073 52.3991 73.3719 49.373 70.9707 46.9983L60.5941 36.7302C60.3628 36.5012 60.0882 36.3196 59.786 36.1956C59.4838 36.0717 59.1599 36.0079 58.8327 36.0079C58.5056 36.0079 58.1817 36.0717 57.8794 36.1956C57.5772 36.3196 57.3027 36.5012 57.0714 36.7302L46.6948 46.9983C44.2927 49.3726 42.6566 52.3988 41.9935 55.6938C41.3304 58.9888 41.6702 62.4044 42.9698 65.5082C44.2694 68.6119 46.4704 71.2643 49.2942 73.1296C52.118 74.9948 55.4376 75.9891 58.8327 75.9864V75.9864ZM50.2175 50.4842L58.8327 41.9589L67.448 50.4842C69.1523 52.1705 70.3131 54.3189 70.7834 56.658C71.2537 58.997 71.0126 61.4215 70.0904 63.6249C69.1682 65.8283 67.6064 67.7116 65.6026 69.0367C63.5987 70.3617 61.2428 71.0689 58.8327 71.0689C56.4227 71.0689 54.0667 70.3617 52.0629 69.0367C50.059 67.7116 48.4973 65.8283 47.5751 63.6249C46.6529 61.4215 46.4117 58.997 46.8821 56.658C47.3524 54.3189 48.5131 52.1705 50.2175 50.4842V50.4842Z" fill="#DAA100"/>
<path d="M58.8329 67.7789C60.5858 67.7793 62.2995 67.2651 63.7571 66.3016C65.2147 65.3381 66.3508 63.9684 67.0216 62.3658C67.6925 60.7632 67.868 58.9997 67.5259 57.2985C67.1837 55.5972 66.3394 54.0345 65.0997 52.8082C64.8685 52.5786 64.5939 52.3963 64.2915 52.2718C63.9891 52.1474 63.6649 52.0831 63.3373 52.0828C63.0098 52.0825 62.6854 52.1461 62.3828 52.27C62.0801 52.3939 61.8052 52.5756 61.5736 52.8048C61.342 53.0339 61.1583 53.3061 61.0331 53.6056C60.908 53.9051 60.8437 54.226 60.844 54.5501C60.8443 54.8742 60.9092 55.1951 61.035 55.4943C61.1608 55.7936 61.345 56.0653 61.577 56.2941C61.9375 56.6505 62.2234 57.0737 62.4184 57.5395C62.6135 58.0053 62.7139 58.5046 62.7139 59.0088C62.7139 59.513 62.6135 60.0123 62.4184 60.4781C62.2234 60.9439 61.9375 61.3671 61.577 61.7235C60.8376 62.4215 59.855 62.811 58.8332 62.8113C57.8113 62.8116 56.8285 62.4226 56.0887 61.7252C55.8575 61.4955 55.5829 61.3133 55.2805 61.1888C54.9781 61.0643 54.6539 61.0001 54.3263 60.9998C53.9988 60.9995 53.6745 61.0631 53.3718 61.187C53.0692 61.3108 52.7942 61.4926 52.5626 61.7217C52.331 61.9509 52.1473 62.223 52.0221 62.5225C51.897 62.822 51.8327 63.143 51.833 63.4671C51.8333 63.7912 51.8982 64.112 52.024 64.4113C52.1498 64.7105 52.334 64.9823 52.566 65.211C53.3871 66.0279 54.3638 66.6754 55.4395 67.1162C56.5152 67.557 57.6686 67.7822 58.8329 67.7789Z" fill="#DAA100"/>
<path d="M50.1379 35.0128C51.7324 33.4357 52.9972 31.5633 53.8601 29.5023C54.7231 27.4414 55.1673 25.2324 55.1673 23.0016C55.1673 20.7708 54.7231 18.5618 53.8601 16.5009C52.9972 14.44 51.7324 12.5675 50.1379 10.9904L39.7614 0.722217C39.5301 0.493254 39.2555 0.311623 38.9533 0.187703C38.6511 0.0637834 38.3272 0 38 0C37.6729 0 37.349 0.0637834 37.0468 0.187703C36.7446 0.311623 36.47 0.493254 36.2387 0.722217L25.8622 10.9904C22.6561 14.1787 20.8587 18.4951 20.8643 22.9929C20.8698 27.4908 22.6779 31.8028 25.8919 34.9833C29.1059 38.1638 33.4634 39.953 38.0087 39.9585C42.554 39.964 46.916 38.1854 50.1379 35.0128V35.0128ZM25.815 23.0016C25.8109 21.4176 26.1243 19.8485 26.7371 18.3852C27.3498 16.9218 28.2497 15.5932 29.3847 14.4763L38 5.95096L46.6152 14.4763C48.0318 15.8784 49.077 17.6045 49.6584 19.5018C50.2398 21.3991 50.3394 23.409 49.9484 25.3535C49.5574 27.298 48.6878 29.1171 47.4167 30.6496C46.1456 32.1821 44.5122 33.3808 42.6612 34.1394C40.8102 34.8981 38.7986 35.1934 36.8047 34.9991C34.8109 34.8048 32.8962 34.1269 31.2303 33.0255C29.5644 31.924 28.1986 30.4331 27.2541 28.6846C26.3095 26.9362 25.8152 24.9842 25.815 23.0016Z" fill="#DAA100"/>
<path d="M44.2666 29.2031C45.0898 28.389 45.7428 27.4223 46.1884 26.3584C46.6339 25.2945 46.8632 24.1541 46.8632 23.0024C46.8632 21.8508 46.6339 20.7104 46.1884 19.6465C45.7428 18.5826 45.0898 17.6159 44.2666 16.8018C43.7995 16.3396 43.1659 16.0799 42.5053 16.0799C41.8447 16.0799 41.2111 16.3396 40.744 16.8018C40.2769 17.2641 40.0144 17.8911 40.0144 18.5448C40.0144 19.1985 40.2768 19.8255 40.744 20.2877C41.1044 20.6441 41.3903 21.0673 41.5854 21.5331C41.7805 21.9989 41.8809 22.4982 41.8809 23.0024C41.8809 23.5067 41.7805 24.0059 41.5854 24.4718C41.3903 24.9376 41.1044 25.3608 40.744 25.7172C40.004 26.4142 39.0214 26.8029 37.9998 26.8029C36.9782 26.8029 35.9957 26.4142 35.2557 25.7172C34.7885 25.2549 34.1549 24.9952 33.4943 24.9952C32.8337 24.9952 32.2001 25.2549 31.733 25.7172C31.2658 26.1794 31.0034 26.8064 31.0034 27.4601C31.0034 28.1138 31.2658 28.7408 31.733 29.2031C33.3953 30.8473 35.6495 31.7709 37.9998 31.7709C40.3502 31.7709 42.6043 30.8473 44.2666 29.2031V29.2031Z" fill="#DAA100"/>
</svg>
