<svg width="76" height="76" viewBox="0 0 76 76" fill="none" xmlns="http://www.w3.org/2000/svg">
<path d="M35.7025 23.3807C35.2846 23.8354 35.0107 24.4039 34.9157 25.0143C34.8206 25.6247 34.9085 26.2496 35.1684 26.81C35.4283 27.3704 35.8483 27.8411 36.3756 28.1626C36.9028 28.4841 37.5134 28.6419 38.1303 28.6162C38.7471 28.5904 39.3425 28.3822 39.8411 28.0178C40.3397 27.6535 40.7191 27.1494 40.9313 26.5692C41.1436 25.9891 41.1792 25.3591 41.0336 24.7587C40.888 24.1583 40.5677 23.6147 40.1134 23.1964C39.8116 22.9187 39.4582 22.7032 39.0733 22.5622C38.6883 22.4212 38.2794 22.3574 37.8698 22.3745C37.4602 22.3916 37.058 22.4893 36.6862 22.6619C36.3143 22.8346 35.98 23.0788 35.7025 23.3807Z" fill="#DAA100"/>
<path d="M24.0403 30.6366C23.2044 31.5459 22.6567 32.6829 22.4666 33.9037C22.2764 35.1246 22.4523 36.3744 22.972 37.4952C23.4918 38.6159 24.332 39.5573 25.3864 40.2003C26.4408 40.8433 27.6621 41.159 28.8958 41.1074C30.1295 41.0559 31.3202 40.6394 32.3174 39.9107C33.3146 39.182 34.0734 38.1738 34.498 37.0136C34.9225 35.8534 34.9937 34.5932 34.7025 33.3925C34.4113 32.1918 33.7708 31.1045 32.862 30.268C32.2586 29.7126 31.5517 29.2816 30.7818 28.9995C30.0119 28.7174 29.194 28.5899 28.3749 28.6241C27.5557 28.6583 26.7513 28.8537 26.0076 29.199C25.2638 29.5443 24.5954 30.0328 24.0403 30.6366V30.6366Z" fill="#DAA100"/>
<path d="M51.5914 36.5151C50.6826 35.6787 49.5463 35.1307 48.3262 34.9404C47.1062 34.7502 45.8571 34.9262 44.737 35.4462C43.617 35.9663 42.6761 36.807 42.0336 37.862C41.391 38.9171 41.0755 40.1392 41.127 41.3736C41.1785 42.6081 41.5947 43.7996 42.323 44.7974C43.0512 45.7952 44.0588 46.5545 45.2183 46.9793C46.3778 47.4041 47.6372 47.4753 48.8371 47.1839C50.0371 46.8925 51.1238 46.2517 51.9597 45.3423C52.5148 44.7385 52.9455 44.0312 53.2274 43.2609C53.5093 42.4905 53.6368 41.6721 53.6026 40.8524C53.5684 40.0327 53.3732 39.2278 53.0281 38.4836C52.683 37.7394 52.1948 37.0705 51.5914 36.5151V36.5151Z" fill="#DAA100"/>
<path d="M35.7025 48.3691C35.2846 48.8238 35.0107 49.3922 34.9157 50.0027C34.8206 50.6131 34.9085 51.238 35.1684 51.7984C35.4283 52.3588 35.8483 52.8295 36.3756 53.1509C36.9028 53.4724 37.5134 53.6303 38.1303 53.6045C38.7471 53.5787 39.3425 53.3705 39.8411 53.0061C40.3397 52.6418 40.7191 52.1377 40.9313 51.5576C41.1436 50.9775 41.1792 50.3474 41.0336 49.747C40.888 49.1467 40.5677 48.603 40.1134 48.1848C39.8116 47.9071 39.4582 47.6916 39.0733 47.5505C38.6883 47.4095 38.2794 47.3457 37.8698 47.3628C37.4602 47.3799 37.058 47.4776 36.6862 47.6503C36.3143 47.8229 35.98 48.0672 35.7025 48.3691Z" fill="#DAA100"/>
<path d="M73.5458 36.181C73.1451 36.0931 72.731 36.0852 72.3272 36.1577C71.9234 36.2301 71.5379 36.3815 71.1926 36.6031C70.8473 36.8247 70.549 37.1123 70.3149 37.4493C70.0807 37.7864 69.9153 38.1663 69.828 38.5673L69.1599 41.6191L62.8356 40.2322C63.133 36.9404 62.774 33.6223 61.7794 30.4705C60.7848 27.3187 59.1745 24.396 57.0418 21.872L59.3019 19.4137L61.5994 21.5252C61.8985 21.8159 62.2528 22.0436 62.6413 22.195C63.0299 22.3463 63.4448 22.4183 63.8615 22.4066C64.2783 22.3949 64.6885 22.2998 65.068 22.1268C65.4474 21.9539 65.7884 21.7066 66.0707 21.3997C66.3531 21.0927 66.5711 20.7323 66.712 20.3396C66.8529 19.9469 66.9137 19.53 66.8909 19.1134C66.8681 18.6968 66.7621 18.2891 66.5792 17.9141C66.3963 17.5392 66.1402 17.2048 65.8261 16.9305L56.6516 8.47191C56.3506 8.19123 55.9971 7.97285 55.6115 7.82935C55.2258 7.68586 54.8156 7.62006 54.4045 7.63576C53.9933 7.65145 53.5893 7.74832 53.2157 7.92081C52.8421 8.09329 52.5062 8.33797 52.2275 8.64079C51.9487 8.94361 51.7325 9.29859 51.5913 9.68531C51.4502 10.072 51.3868 10.4829 51.4049 10.8942C51.4229 11.3055 51.5221 11.7092 51.6966 12.082C51.8711 12.4548 52.1176 12.7895 52.4218 13.0667L54.7225 15.1844L52.4624 17.6427C47.4914 14.1098 41.399 12.5219 35.3373 13.1791L33.842 6.87578L36.8825 6.15424C37.6795 5.95528 38.3661 5.44995 38.7933 4.74783C39.2204 4.04571 39.3538 3.20339 39.1644 2.40353C38.9751 1.60367 38.4782 0.910742 37.7817 0.474998C37.0851 0.0392536 36.245 -0.104177 35.4434 0.0758047L23.2941 2.95572C22.5501 3.1323 21.8968 3.57597 21.458 4.20255C21.0193 4.82914 20.8256 5.59508 20.9137 6.35506C21.0019 7.11505 21.3657 7.81624 21.9363 8.32561C22.5068 8.83498 23.2443 9.11711 24.0089 9.11849C24.2528 9.11803 24.4957 9.08973 24.7331 9.03415L27.7674 8.31574L29.2595 14.6097C25.8427 15.8742 22.7462 17.8762 20.19 20.4734C17.6338 23.0706 15.6806 26.1993 14.4693 29.6371L8.17298 28.2565L8.84101 25.2079C8.92874 24.8072 8.93671 24.393 8.86449 23.9892C8.79228 23.5853 8.64127 23.1997 8.4201 22.8542C8.19893 22.5088 7.91194 22.2103 7.57549 21.9759C7.23904 21.7414 6.85973 21.5755 6.45922 21.4878C6.05871 21.4 5.64485 21.392 5.24126 21.4643C4.83766 21.5365 4.45225 21.6876 4.10702 21.9089C3.76179 22.1302 3.46349 22.4174 3.22917 22.7541C2.99486 23.0907 2.8291 23.4703 2.74138 23.871L0.0724007 36.0779C-0.0153947 36.4786 -0.0234262 36.8928 0.0487633 37.2966C0.120953 37.7005 0.271949 38.0862 0.493129 38.4317C0.714308 38.7771 1.00134 39.0756 1.33782 39.31C1.67431 39.5445 2.05365 39.7103 2.45419 39.798C2.67486 39.8449 2.89975 39.869 3.12533 39.8699C3.83717 39.8691 4.52738 39.625 5.08151 39.1779C5.63564 38.7307 6.02041 38.1076 6.17203 37.4116L6.84006 34.3599L13.1644 35.7468C12.867 39.0386 13.226 42.3567 14.2206 45.5085C15.2152 48.6603 16.8255 51.583 18.9582 54.107L16.6981 56.5653L14.4006 54.4537C14.1015 54.1631 13.7472 53.9354 13.3587 53.784C12.9701 53.6326 12.5552 53.5607 12.1385 53.5724C11.7217 53.5841 11.3115 53.6792 10.932 53.8522C10.5526 54.0251 10.2116 54.2724 9.92927 54.5793C9.6469 54.8863 9.42886 55.2467 9.28799 55.6394C9.14712 56.0321 9.08629 56.449 9.1091 56.8656C9.1319 57.2821 9.23788 57.6899 9.42077 58.0648C9.60365 58.4398 9.85975 58.7742 10.1739 59.0485L19.3608 67.5071C19.6619 67.7878 20.0154 68.0061 20.401 68.1496C20.7867 68.2931 21.1969 68.3589 21.608 68.3432C22.0192 68.3275 22.4232 68.2307 22.7968 68.0582C23.1704 67.8857 23.5062 67.641 23.785 67.3382C24.0638 67.0354 24.28 66.6804 24.4211 66.2937C24.5623 65.9069 24.6257 65.4961 24.6076 65.0848C24.5896 64.6735 24.4904 64.2698 24.3159 63.897C24.1414 63.5241 23.8949 63.1895 23.5906 62.9123L21.29 60.7946L23.5532 58.3363C27.7683 61.351 32.8189 62.9737 38 62.9779C38.8948 62.9748 39.7888 62.9247 40.6783 62.828L42.1673 69.1157L39.1269 69.8372C38.3827 70.0139 37.7292 70.4578 37.2904 71.0847C36.8516 71.7116 36.6582 72.4779 36.7468 73.2381C36.8353 73.9983 37.1997 74.6996 37.7709 75.2087C38.342 75.7178 39.08 75.9994 39.8449 76C40.0877 75.9997 40.3296 75.9714 40.566 75.9157L52.7153 73.0358C53.1183 72.9453 53.4994 72.7756 53.8364 72.5367C54.1735 72.2978 54.4598 71.9943 54.6787 71.6438C54.8977 71.2933 55.0449 70.9029 55.112 70.4951C55.179 70.0872 55.1645 69.6701 55.0693 69.268C54.9741 68.8658 54.8001 68.4865 54.5573 68.1521C54.3145 67.8177 54.0079 67.5349 53.655 67.32C53.3022 67.105 52.9103 66.9623 52.502 66.9001C52.0936 66.8378 51.677 66.8573 51.2762 66.9573L48.242 67.6757L46.7405 61.3599C50.1578 60.099 53.2551 58.0994 55.8116 55.5035C58.3681 52.9076 60.3209 49.7794 61.5307 46.3419L67.827 47.7225L67.159 50.7711C67.0712 51.1718 67.0632 51.586 67.1353 51.9898C67.2075 52.3937 67.3585 52.7794 67.5797 53.1248C67.8009 53.4703 68.0879 53.7688 68.4244 54.0032C68.7609 54.2377 69.1402 54.4035 69.5408 54.4912C69.7612 54.5396 69.9863 54.5637 70.2119 54.5631C70.9233 54.5625 71.6132 54.3187 72.1673 53.8723C72.7213 53.4258 73.1064 52.8033 73.2586 52.1079L75.9276 39.9011C76.0154 39.5003 76.0234 39.0862 75.9512 38.6823C75.879 38.2785 75.728 37.8928 75.5069 37.5473C75.2857 37.2019 74.9987 36.9034 74.6622 36.6689C74.3257 36.4345 73.9463 36.2687 73.5458 36.181ZM25.32 51.7987C22.5938 49.2894 20.6725 46.0276 19.7988 42.4257C18.9252 38.8238 19.1386 35.0435 20.4119 31.563C21.6853 28.0824 23.9615 25.0578 26.9527 22.8715C29.9439 20.6853 33.5157 19.4357 37.2167 19.2807C40.9176 19.1256 44.5813 20.0721 47.7447 22.0005C50.9081 23.9289 53.4289 26.7525 54.9886 30.1144C56.5483 33.4763 57.0767 37.2255 56.507 40.8878C55.9373 44.5502 54.2952 47.9613 51.7882 50.6899C48.4199 54.3411 43.7422 56.5069 38.7806 56.7125C33.8189 56.918 28.9783 55.1464 25.32 51.7862V51.7987Z" fill="#DAA100"/>
</svg>
