<svg width="80" height="80" viewBox="0 0 80 80" fill="none" xmlns="http://www.w3.org/2000/svg">
<path d="M47.5999 37.4666V23.8373C47.599 22.8298 47.198 21.8639 46.4852 21.152L42.5332 17.2V12.1333" stroke="#DAA100" stroke-width="4" stroke-linejoin="round"/>
<path d="M7.06667 12.1333V17.2L3.11467 21.152C2.40182 21.8639 2.00089 22.8298 2 23.8373V74.2C2 75.2078 2.40036 76.1743 3.11299 76.887C3.82563 77.5996 4.79218 78 5.8 78H43.8C44.2303 78.0003 44.6579 77.9319 45.0667 77.7973" stroke="#DAA100" stroke-width="4" stroke-linejoin="round"/>
<path d="M47.6 2H2V12.1333H47.6V2Z" stroke="#DAA100" stroke-width="4" stroke-linejoin="round"/>
<path d="M34.9333 56.4667C34.9333 52.2078 36.1963 48.0446 38.5624 44.5034C40.9285 40.9623 44.2915 38.2023 48.2262 36.5725C52.1609 34.9427 56.4906 34.5162 60.6676 35.3471C64.8447 36.178 68.6816 38.2288 71.693 41.2403C74.7045 44.2518 76.7554 48.0887 77.5863 52.2657C78.4171 56.4428 77.9907 60.7724 76.3609 64.7071C74.7311 68.6418 71.9711 72.0049 68.43 74.371C64.8888 76.7371 60.7256 78 56.4667 78C54.9598 77.9992 53.4571 77.8421 51.9827 77.5314" stroke="#DAA100" stroke-width="4" stroke-linejoin="round"/>
<path d="M69.1333 56.4667C69.1333 62.1777 66.8646 67.6548 62.8263 71.693C58.7881 75.7313 53.311 78 47.6 78C41.889 78 36.4119 75.7313 32.3736 71.693C28.3353 67.6548 26.0667 62.1777 26.0667 56.4667H69.1333Z" stroke="#DAA100" stroke-width="4" stroke-linejoin="round"/>
<path d="M64.0666 56.4667C64.0666 60.8339 62.3318 65.0223 59.2437 68.1104C56.1556 71.1985 51.9672 72.9333 47.6 72.9333C43.2327 72.9333 39.0444 71.1985 35.9563 68.1104C32.8682 65.0223 31.1333 60.8339 31.1333 56.4667" stroke="#DAA100" stroke-width="4" stroke-linejoin="round"/>
<path d="M56.4666 34.9333V31.0066C56.4669 28.6859 55.5574 26.4576 53.9332 24.7999L51.3999 22.2666" stroke="#DAA100" stroke-width="4" stroke-linejoin="round"/>
<path d="M47.6001 72.9333V56.4667L59.0001 67.8667" stroke="#DAA100" stroke-width="4" stroke-linejoin="round"/>
<path d="M47.5999 56.4667L36.2 67.8667" stroke="#DAA100" stroke-width="4" stroke-linejoin="round"/>
<path d="M2 29.8667H47.6" stroke="#DAA100" stroke-width="4" stroke-linejoin="round"/>
<path d="M28.6 65.3334H2" stroke="#DAA100" stroke-width="4" stroke-linejoin="round"/>
<path d="M9.6001 2V7.06667H40.0001V2" stroke="#DAA100" stroke-width="4" stroke-linejoin="round"/>
<path d="M26.4086 60.2667H7.06665V34.9333H42.5333V40.0507" stroke="#DAA100" stroke-width="4" stroke-linejoin="round"/>
<path d="M58.3668 24.1666C59.5828 22.9503 61.2322 22.2669 62.9521 22.2666H64.0668V23.3813C64.0665 25.1012 63.3831 26.7506 62.1668 27.9666C60.9508 29.1829 59.3014 29.8663 57.5815 29.8666H56.4668V28.7519C56.4671 27.032 57.1505 25.3826 58.3668 24.1666Z" stroke="#DAA100" stroke-width="4" stroke-linejoin="round"/>
<path d="M56.4668 40C59.7177 40 62.8959 40.9623 65.6009 42.7656C68.3058 44.5689 70.4164 47.1325 71.6668 50.1333" stroke="#DAA100" stroke-width="4" stroke-linejoin="round"/>
</svg>
