<svg width="77" height="95" viewBox="0 0 77 95" fill="none" xmlns="http://www.w3.org/2000/svg">
<path fill-rule="evenodd" clip-rule="evenodd" d="M40.3234 24.5023C42.3518 22.0238 43.5668 18.8677 43.5668 15.431C43.5668 7.46099 37.0324 1 28.9718 1C20.9112 1 14.3768 7.46099 14.3768 15.431C14.3768 18.8677 15.5918 22.0238 17.6202 24.5023V15.4031C17.6202 9.21368 22.7025 4.2069 28.9718 4.2069C35.2284 4.2069 40.3234 9.21962 40.3234 15.4031V24.5023ZM48.4277 90.7931C61.8642 90.7931 72.7567 79.2957 72.7567 66.7414C72.7567 66.7414 72.7567 74.1597 72.7567 66.7414V54.7128V47.5054C72.7567 44.8457 70.5973 42.6897 67.8917 42.6897C65.2048 42.6897 63.0267 44.8421 63.0267 47.5054V49.1034H59.7834V41.1069C59.7834 38.4388 57.624 36.2759 54.9184 36.2759C52.2315 36.2759 50.0534 38.4294 50.0534 41.1069V45.8966H46.8101V37.9C46.8101 35.2319 44.6507 33.069 41.9451 33.069C39.2582 33.069 37.0801 35.2225 37.0801 37.9V49.1034H33.8368V15.4478C33.8368 12.7819 31.6774 10.6207 28.9718 10.6207C26.2849 10.6207 24.1068 12.7601 24.1068 15.4478V51.6689C17.4307 44.6124 8.64143 36.8503 5.03941 40.4311C1.51336 43.9364 10.5995 53.5954 23.2875 74.7044C29.0042 84.2154 36.2378 90.7916 48.4277 90.7931ZM76 66.7414C76 81.7959 63.6573 94 48.4317 94C38.3355 94 27.6803 89.3419 20.3472 76.1319C9.76266 57.0646 -3.77329 44.5599 2.67204 38.187C7.28291 33.6279 14.5223 38.0017 20.8635 43.8659V15.458C20.8635 10.9908 24.4937 7.41379 28.9718 7.41379C33.4811 7.41379 37.0801 11.0153 37.0801 15.458V31.4603C38.4353 30.4563 40.1197 29.8621 41.9451 29.8621C45.456 29.8621 48.4152 32.0346 49.5533 35.0833C50.9829 33.8322 52.8612 33.069 54.9184 33.069C59.4277 33.069 63.0267 36.655 63.0267 41.0786V41.1218C64.3819 40.1194 66.0663 39.5283 67.8917 39.5283C72.401 39.5283 76 43.1179 76 47.5459V66.7414Z" fill="#DAA100" stroke="#DAA100" stroke-width="2"/>
</svg>
