<svg width="75" height="93" viewBox="0 0 75 93" fill="none" xmlns="http://www.w3.org/2000/svg">
<path d="M49.9527 52.1595C56.7693 47.1951 61.3384 38.3167 61.3384 28.1789C61.3384 12.6411 50.6437 0 37.5 0C24.3563 0 13.6617 12.6411 13.6617 28.1789C13.6617 38.3167 18.2307 47.1951 25.0473 52.1595C10.3284 56.0621 0 66.7231 0 79.6248C0 90.1827 23.573 93 37.5 93C51.427 93 75 90.1827 75 79.6248C75 66.7231 64.6716 56.0621 49.9527 52.1595ZM18.5726 28.1789C18.5726 15.8463 27.0643 5.8125 37.5 5.8125C47.9357 5.8125 56.4274 15.8463 56.4274 28.1789C56.4274 40.5115 47.9357 50.5434 37.5 50.5434C27.0643 50.5434 18.5726 40.5115 18.5726 28.1789ZM37.5 87.1875C17.4799 87.1875 5.49599 82.1888 4.9123 79.6052C4.92749 66.7839 19.5411 56.3559 37.5 56.3559C55.4571 56.3559 70.0695 66.782 70.0875 79.6014C69.5184 82.1832 57.5333 87.1875 37.5 87.1875Z" fill="#DAA100"/>
</svg>
