<svg width="75" height="93" viewBox="0 0 75 93" fill="none" xmlns="http://www.w3.org/2000/svg">
<path d="M58.3333 23.25V19.375C58.3333 8.67419 49.0062 0 37.5 0C25.9937 0 16.6667 8.67419 16.6667 19.375V23.25H0V81.375C0 87.7978 5.59375 93 12.5 93H62.5C69.4062 93 75 87.7978 75 81.375V23.25H58.3333ZM25 19.375C25 12.9551 30.5969 7.75 37.5 7.75C44.4031 7.75 50 12.9551 50 19.375V23.25H25V19.375ZM66.6667 81.375C66.6667 83.5159 64.8021 85.25 62.5 85.25H12.5C10.1979 85.25 8.33333 83.5159 8.33333 81.375V31H66.6667V81.375Z" fill="#DAA100"/>
</svg>
